HIERARCHY
ROOT Hips
{
	OFFSET -3.958830 18.904000 13.208200
	CHANNELS 6 Xposition Yposition Zposition Zrotation Yrotation Xrotation 
	JOINT LHipJoint
	{
		OFFSET 0.000000 0.000000 0.000000
		CHANNELS 3 Zrotation Yrotation Xrotation
		JOINT LeftUpLeg
		{
			OFFSET 1.800000 -1.400000 0.085000
			CHANNELS 3 Zrotation Yrotation Xrotation
			JOINT LeftLeg
			{
				OFFSET 2.215000 -6.000000 0.000000
				CHANNELS 3 Zrotation Yrotation Xrotation
				JOINT LeftFoot
				{
					OFFSET 2.500000 -6.900000 0.000000
					CHANNELS 3 Zrotation Yrotation Xrotation
					JOINT LeftToeBase
					{
						OFFSET 0.200000 -0.500000 1.950000
						CHANNELS 3 Zrotation Yrotation Xrotation
						End Site
						{
							OFFSET 0.000000 0.000000 0.000000
						}
					}
				}
			}
		}
	}
	JOINT RHipJoint
	{
		OFFSET 0.000000 0.000000 0.000000
		CHANNELS 3 Zrotation Yrotation Xrotation
		JOINT RightUpLeg
		{
			OFFSET -1.800000 -1.400000 0.085000
			CHANNELS 3 Zrotation Yrotation Xrotation
			JOINT RightLeg
			{
				OFFSET -2.215000 -6.000000 0.000000
				CHANNELS 3 Zrotation Yrotation Xrotation
				JOINT RightFoot
				{
					OFFSET -2.500000 -6.900000 0.000000
					CHANNELS 3 Zrotation Yrotation Xrotation
					JOINT RightToeBase
					{
						OFFSET -0.200000 -0.500000 1.950000
						CHANNELS 3 Zrotation Yrotation Xrotation
						End Site
						{
							OFFSET 0.000000 0.000000 0.000000
						}
					}
				}
			}
		}
	}
	JOINT LowerBack
	{
		OFFSET 0.000000 0.000000 0.000000
		CHANNELS 3 Zrotation Yrotation Xrotation
		JOINT Spine
		{
			OFFSET -0.087000 1.940000 -0.288900
			CHANNELS 3 Zrotation Yrotation Xrotation
			JOINT Spine1
			{
				OFFSET 0.000000 1.950000 0.060000
				CHANNELS 3 Zrotation Yrotation Xrotation
				JOINT Neck
				{
					OFFSET 0.000000 0.000000 0.000000
					CHANNELS 3 Zrotation Yrotation Xrotation
					JOINT Neck1
					{
						OFFSET 0.000000 1.600000 0.340000
						CHANNELS 3 Zrotation Yrotation Xrotation
						JOINT Head
						{
							OFFSET 0.000000 1.667000 -0.240000
							CHANNELS 3 Zrotation Yrotation Xrotation
							End Site
							{
								OFFSET 0.000000 0.000000 0.000000
							}
						}
					}
				}
				JOINT LeftShoulder
				{
					OFFSET 0.000000 0.000000 0.000000
					CHANNELS 3 Zrotation Yrotation Xrotation
					JOINT LeftArm
					{
						OFFSET 2.700000 1.550000 -0.730000
						CHANNELS 3 Zrotation Yrotation Xrotation
						JOINT LeftForeArm
						{
							OFFSET 5.450000 0.000000 0.000000
							CHANNELS 3 Zrotation Yrotation Xrotation
							JOINT LeftHand
							{
								OFFSET 3.450000 0.000000 0.000000
								CHANNELS 3 Zrotation Yrotation Xrotation
								JOINT LeftHandIndex1
								{
									OFFSET 0.750000 0.000000 0.000000
									CHANNELS 3 Zrotation Yrotation Xrotation
									End Site
									{
										OFFSET 0.000000 0.000000 0.000000
									}
								}
							}
						}
					}
				}
				JOINT RightShoulder
				{
					OFFSET 0.000000 0.000000 0.000000
					CHANNELS 3 Zrotation Yrotation Xrotation
					JOINT RightArm
					{
						OFFSET -2.700000 1.550000 -0.730000
						CHANNELS 3 Zrotation Yrotation Xrotation
						JOINT RightForeArm
						{
							OFFSET -5.450000 0.000000 0.000000
							CHANNELS 3 Zrotation Yrotation Xrotation
							JOINT RightHand
							{
								OFFSET -3.450000 0.000000 0.000000
								CHANNELS 3 Zrotation Yrotation Xrotation
								JOINT RightHandIndex1
								{
									OFFSET -0.750000 0.000000 0.000000
									CHANNELS 3 Zrotation Yrotation Xrotation
									End Site
									{
										OFFSET 0.000000 0.000000 0.000000
									}
								}
							}
						}
					}
				}
			}
		}
	}
}
MOTION
Frames: 8
Frame Time: 0.016667
-0.517040 17.220010 -0.518630 -9.619532 5.576742 -14.618899 -14.972750 12.263901 3.012747 23.684566 2.693441 -22.274168 -7.062921 13.378488 35.372157 -0.617143 8.702692 1.325741 0.151240 -0.039520 -0.083740 18.509453 -11.514679 2.530778 -10.554086 3.659159 -6.018453 14.471319 -11.200944 30.730260 -0.668660 -6.792474 1.949069 0.315210 0.809920 0.220990 -4.316686 1.188980 -7.770299 8.463960 2.450468 19.444716 -10.202006 6.261947 17.126886 5.514784 -2.793660 -7.721393 -3.709185 3.495796 40.866380 1.607210 -3.276040 -12.560300 4.789588 -14.392874 4.560619 -1.961260 -18.178009 0.810563 19.752137 -1.166638 -2.278867 -4.628883 2.361737 0.534750 0.392150 -0.264120 0.103390 -14.289146 20.314771 -1.344458 -2.919955 39.861769 0.498752 -14.962763 27.705091 -3.055704 1.725329 -1.219305 -0.554320 0.734850 0.497720 -0.099560 
-0.497680 17.194880 -0.505640 -9.678007 5.743200 -14.923601 -14.957099 12.158287 3.086360 24.178939 2.728545 -22.435375 -7.515245 13.900210 36.288053 -0.558467 8.935924 1.237657 0.185760 0.002870 -0.065320 18.539781 -11.509114 2.512526 -10.792062 3.818523 -6.081239 14.568424 -11.492565 31.672192 -0.711944 -6.941326 1.897297 0.331150 0.784760 0.228190 -4.388191 1.330756 -7.821309 9.516769 2.320363 19.458924 -10.659543 6.280163 17.153863 5.940144 -2.672324 -7.653051 -3.499831 3.068507 41.235283 1.205410 -3.557090 -12.659170 4.275357 -14.662062 4.370951 -1.978746 -19.069787 0.788239 19.879188 -0.707198 -2.271648 -4.619549 2.387438 0.528620 0.384410 -0.249420 0.114820 -14.616349 20.372105 -1.412848 -2.855509 39.909032 1.408247 -13.096217 25.931499 -2.322550 1.739240 -1.231799 -0.530010 0.717980 0.472790 -0.097910 
-0.478590 17.170350 -0.491830 -9.638688 5.854027 -15.408889 -14.925206 12.079760 3.127847 24.456736 2.730243 -22.423550 -7.751916 14.366721 37.367787 -0.481462 9.145351 1.162115 0.208410 0.030710 -0.050550 18.576411 -11.530589 2.502303 -11.228172 4.024777 -6.103684 14.627627 -11.861443 32.924749 -0.766485 -7.121320 1.832240 0.332320 0.754380 0.228010 -4.490736 1.476606 -7.870018 10.599329 2.156597 19.634209 -11.331629 6.320148 17.275971 6.187430 -2.488644 -7.812281 -3.198845 2.929781 42.092915 1.448160 -3.600870 -12.683230 3.855842 -15.266525 4.543458 -1.426712 -19.233152 0.661344 19.630854 -0.846076 -2.270603 -4.582516 2.404196 0.530350 0.361620 -0.226960 0.123810 -14.719372 20.628901 -1.371481 -2.899963 39.705880 1.974414 -11.738473 24.358726 -1.785387 1.769752 -1.228294 -0.506470 0.701300 0.448820 -0.094710 
-0.457390 17.145300 -0.475570 -9.589129 5.955182 -15.967142 -14.888463 12.052346 3.117217 24.487568 2.692452 -22.209035 -7.611848 14.568891 38.308747 -0.428162 9.252878 1.116840 0.226970 0.051980 -0.021170 18.605815 -11.568871 2.513425 -11.786791 4.185705 -5.928845 14.891796 -12.277160 33.887281 -0.830190 -7.288185 1.764119 0.324410 0.708250 0.229030 -4.588958 1.586310 -7.908395 11.719529 1.994140 19.927547 -11.986552 6.414274 17.524919 6.433065 -2.214100 -8.224853 -2.792121 2.698622 43.025872 1.500320 -3.462080 -13.177750 3.472720 -16.053765 4.845377 -0.734902 -19.054248 0.469567 19.360042 -1.445659 -2.305747 -4.529372 2.404419 0.551670 0.327440 -0.188760 0.118780 -14.863112 21.010649 -1.030269 -2.873472 38.756021 2.018336 -11.354712 23.560031 -1.579338 1.793854 -1.214709 -0.484400 0.683090 0.427720 -0.100770 
-0.444050 17.119890 -0.458970 -9.312899 6.084294 -16.606395 -14.895844 12.117473 3.094146 24.306523 2.655942 -21.909017 -7.260599 14.694857 39.324887 -0.400864 9.339228 1.076303 0.235490 0.066830 0.003980 18.584275 -11.570833 2.513551 -12.350814 4.328827 -5.688333 14.949603 -12.608308 34.860218 -0.882432 -7.417453 1.719595 0.320240 0.658300 0.206300 -4.551049 1.492429 -7.928947 11.954432 2.091661 20.366027 -11.689878 6.573999 17.771178 6.564748 -1.965922 -8.720200 -2.527188 2.360532 44.287699 1.389230 -3.377060 -14.052430 3.243970 -16.763642 5.169497 -0.843067 -18.839822 0.401035 19.338440 -2.547550 -2.390122 -4.458087 2.377617 0.591420 0.287150 -0.152710 0.106960 -14.916796 21.560379 -0.684269 -3.209431 37.797528 1.895593 -10.803277 22.496806 -1.299800 1.812976 -1.167434 -0.484990 0.688170 0.414490 -0.118610 
-0.429640 17.097430 -0.442260 -9.095490 6.169707 -17.332965 -14.887434 12.167046 3.053895 24.125345 2.597006 -21.476589 -6.858359 14.752050 40.284959 -0.369852 9.411916 1.043512 0.248840 0.084770 0.043870 18.577046 -11.610256 2.511523 -12.878112 4.328025 -5.110180 14.941947 -12.839294 35.421513 -0.925962 -7.508081 1.682473 0.318130 0.612080 0.189710 -4.554934 1.479503 -7.935914 12.476928 2.140801 20.836290 -11.667212 6.769966 18.185041 6.790632 -1.660956 -9.148621 -2.083581 2.006809 45.077491 1.277030 -3.248370 -14.913750 3.113523 -17.393400 5.318107 -0.805328 -18.931208 0.281231 19.389370 -3.833947 -2.519795 -4.396856 2.355474 0.618550 0.251710 -0.118510 0.090070 -15.232196 21.957543 -0.272882 -3.315943 36.620992 1.756063 -10.615044 21.761529 -1.171048 1.832833 -1.135287 -0.479410 0.691130 0.398780 -0.134010 
-0.412530 17.085050 -0.421060 -8.978404 6.328507 -18.009462 -14.847589 12.223510 2.955310 23.671753 2.472311 -20.904462 -6.059040 14.486979 41.063510 -0.370926 9.388055 1.047963 0.270280 0.103220 0.068150 18.594663 -11.712324 2.519335 -13.310648 4.202029 -4.409228 14.804124 -12.975317 35.664921 -0.962845 -7.572396 1.662327 0.321200 0.582390 0.186820 -4.641459 1.572849 -7.908505 13.423483 2.055030 20.961142 -11.966825 6.802407 18.630314 7.018534 -1.405553 -9.432790 -1.604353 1.837660 45.949942 1.530430 -3.185320 -15.611210 2.983607 -17.946634 5.492122 -1.326773 -18.811333 0.061709 20.116292 -5.944581 -2.824394 -4.321725 2.362957 0.649850 0.226050 -0.092080 0.089760 -15.512779 22.179467 -0.014597 -2.660427 36.101679 2.049463 -10.522203 20.960984 -1.096986 1.838879 -1.111827 -0.475480 0.691270 0.386010 -0.145670 
-0.394880 17.081560 -0.393040 -9.014700 6.570318 -18.734952 -14.799462 12.304271 2.820001 23.130706 2.345926 -20.190696 -4.924922 13.976233 41.663769 -0.395328 9.305881 1.085282 0.272090 0.090640 0.077470 18.618448 -11.845767 2.529835 -13.404817 3.916499 -3.390730 14.438330 -12.948598 35.562846 -0.979551 -7.586592 1.669543 0.315940 0.575250 0.177140 -4.750749 1.688337 -7.855450 14.588464 1.942001 20.829494 -12.172147 6.728634 19.182074 7.276850 -1.215556 -9.725941 -1.177722 1.714511 46.984315 1.828940 -3.247640 -15.745150 2.874411 -18.484515 5.741808 -2.549148 -18.377278 -0.262617 21.332467 -9.223889 -3.358366 -4.234519 2.371240 0.680680 0.211250 -0.085810 0.091440 -15.824730 22.425125 0.224129 -1.901149 35.810416 2.493733 -10.192510 20.100472 -0.958237 1.841467 -1.081790 -0.491700 0.702350 0.385220 -0.159230 
